<svg id="j5-scala" xmlns="http://www.w3.org/2000/svg" viewBox="0 0 606 587.9">
  <defs>
    <style>
      .cls-1 {
        fill: #fff;
      }
    </style>
  </defs>
  <title>j5-scala-logo</title>
  <g id="face">
    <rect id="background" class="cls-1" x="86" y="109.5" width="434.1" height="196.53" rx="12" ry="12"/>
    <path id="border" d="M498.4,313.2H107.6a29,29,0,0,1-28.9-28.9V131.1a29,29,0,0,1,28.9-28.9H498.4a29,29,0,0,1,28.9,28.9V284.3A29,29,0,0,1,498.4,313.2ZM107.6,116.7a14.5,14.5,0,0,0-14.4,14.4V284.3a14.5,14.5,0,0,0,14.4,14.5H498.4a14.5,14.5,0,0,0,14.4-14.5V131.1a14.5,14.5,0,0,0-14.4-14.4Z"/>
  </g>
  <g id="left-jaw">
    <rect id="background-2" data-name="background" class="cls-1" x="145.8" y="308.7" width="34.5" height="149.58" rx="7.5" ry="7.5" transform="translate(496 634.2) rotate(150)"/>
    <path id="border-2" data-name="border" d="M190.4,459.7a25.9,25.9,0,0,1-5.5-.7,21.4,21.4,0,0,1-12.8-9.8L110.7,342.8a21.2,21.2,0,0,1,7.7-28.8l6.7-3.8a21.1,21.1,0,0,1,28.8,7.7l61.4,106.3a21.1,21.1,0,0,1-7.7,28.8l-6.7,3.9A21.4,21.4,0,0,1,190.4,459.7Zm-54.7-137a5.1,5.1,0,0,0-2.9.8l-6.7,3.8a5.7,5.7,0,0,0-2.1,7.8l61.4,106.4a5.9,5.9,0,0,0,7.8,2.1h0l6.7-3.9a5.6,5.6,0,0,0,2.1-7.8L140.6,325.6A5.6,5.6,0,0,0,135.7,322.7Z"/>
  </g>
  <g id="right-jaw">
    <rect id="background-3" data-name="background" class="cls-1" x="425.7" y="308.7" width="34.5" height="149.58" rx="7.5" ry="7.5" transform="translate(251.1 -170.1) rotate(30)"/>
    <path id="border-3" data-name="border" d="M415.6,459.7a21.4,21.4,0,0,1-10.5-2.8l-6.7-3.9a21.1,21.1,0,0,1-7.7-28.8l61.4-106.3a21.1,21.1,0,0,1,28.8-7.7l6.7,3.8a21.2,21.2,0,0,1,7.7,28.8L433.9,449.2a21.4,21.4,0,0,1-12.8,9.8A25.9,25.9,0,0,1,415.6,459.7Zm54.7-137a5.6,5.6,0,0,0-4.9,2.9L404,431.9a5.6,5.6,0,0,0,2.1,7.8l6.7,3.9a5.9,5.9,0,0,0,7.8-2.1L482,335.1a5.7,5.7,0,0,0-2.1-7.8l-6.7-3.8A5.1,5.1,0,0,0,470.3,322.7Z"/>
  </g>
  <g id="left-cheek">
    <g id="background-4" data-name="background">
      <rect class="cls-1" x="65.2" y="88.5" width="97.8" height="241.63" rx="13.7" ry="13.7"/>
    </g>
    <g id="border-4" data-name="border">
      <path d="M149.3,96.1a6.1,6.1,0,0,1,6,6.1V316.4a6,6,0,0,1-6,6H78.9a6,6,0,0,1-6-6V102.2a6.1,6.1,0,0,1,6-6.1h70.4m0-15.3H78.9a21.5,21.5,0,0,0-21.4,21.4V316.4a21.5,21.5,0,0,0,21.4,21.4h70.4a21.4,21.4,0,0,0,21.4-21.4V102.2a21.4,21.4,0,0,0-21.4-21.4Z"/>
    </g>
  </g>
  <g id="right-cheek">
    <g id="background-5" data-name="background">
      <rect class="cls-1" x="443" y="88.5" width="97.8" height="241.63" rx="13.7" ry="13.7"/>
    </g>
    <g id="border-5" data-name="border">
      <path d="M527.1,96.1a6.1,6.1,0,0,1,6,6.1V316.4a6,6,0,0,1-6,6H456.7a6,6,0,0,1-6-6V102.2a6.1,6.1,0,0,1,6-6.1h70.4m0-15.3H456.7a21.4,21.4,0,0,0-21.4,21.4V316.4a21.4,21.4,0,0,0,21.4,21.4h70.4a21.5,21.5,0,0,0,21.4-21.4V102.2a21.5,21.5,0,0,0-21.4-21.4Z"/>
    </g>
  </g>
  <g id="left-eyebrow">
    <rect id="background-6" data-name="background" class="cls-1" x="5.6" y="41.9" width="272.7" height="49.02" rx="8" ry="8" transform="translate(-13 43) rotate(-16.5)"/>
    <path id="border-6" data-name="border" d="M27.8,132.7A22,22,0,0,1,6.7,117L.9,97.4A22,22,0,0,1,15.8,70.1L249.8.9a22,22,0,0,1,27.3,14.9l5.8,19.5a21.9,21.9,0,0,1-14.8,27.3L34,131.8A22.7,22.7,0,0,1,27.8,132.7ZM256,15.3l-1.8.3L20.1,84.8a6.8,6.8,0,0,0-4.5,8.3l5.8,19.5a6.7,6.7,0,0,0,8.3,4.5l234-69.2a6.7,6.7,0,0,0,4.5-8.3l-5.8-19.5A6.6,6.6,0,0,0,256,15.3Z"/>
  </g>
  <g id="right-eyebrow">
    <rect id="background-7" data-name="background" class="cls-1" x="327.7" y="41.9" width="272.7" height="49.02" rx="8" ry="8" transform="translate(890.3 261.6) rotate(-163.5)"/>
    <path id="border-7" data-name="border" d="M578.2,132.7a22.7,22.7,0,0,1-6.2-.9L337.9,62.6a21.9,21.9,0,0,1-14.8-27.3l5.8-19.5A21.9,21.9,0,0,1,356.2.9l234,69.2a22,22,0,0,1,14.9,27.3L599.3,117A22,22,0,0,1,578.2,132.7ZM342.3,47.9l234,69.2a6.7,6.7,0,0,0,8.3-4.5l5.8-19.5a6.8,6.8,0,0,0-4.5-8.3L351.8,15.6a6.6,6.6,0,0,0-8.2,4.5l-5.8,19.5a6.7,6.7,0,0,0,4.5,8.3Z"/>
  </g>
  <g id="forehead">
    <path id="background-8" data-name="background" class="cls-1" d="M171,86.6H435a9.9,9.9,0,0,1,9.9,9.9V174a10,10,0,0,1-14.4,8.9L307.4,121.4a9.7,9.7,0,0,0-8.8,0L175.5,182.9a10,10,0,0,1-14.4-8.9V96.5A9.9,9.9,0,0,1,171,86.6Z"/>
    <path id="border-8" data-name="border" d="M435,191.7a18.4,18.4,0,0,1-7.9-1.9L304,128.2a2.3,2.3,0,0,0-2,0L178.9,189.8a17.6,17.6,0,0,1-17.1-.8,17.3,17.3,0,0,1-8.4-15V96.5A17.6,17.6,0,0,1,171,78.9H435a17.6,17.6,0,0,1,17.6,17.6V174a17.3,17.3,0,0,1-8.4,15A17,17,0,0,1,435,191.7Zm-132-79a18.2,18.2,0,0,1,7.9,1.8l123,61.6a2.9,2.9,0,0,0,2.3-.1,2.4,2.4,0,0,0,1-2V96.5a2.3,2.3,0,0,0-2.2-2.3H171a2.3,2.3,0,0,0-2.2,2.3V174a2.4,2.4,0,0,0,1,2,2.9,2.9,0,0,0,2.3.1l123-61.6A18.2,18.2,0,0,1,303,112.7Z"/>
  </g>
  <g id="scala-logo">
    <g id="staircase-back-bottom">
      <path id="background-9" data-name="background" class="cls-1" d="M190.8,441.6v28c0,4.7,102,12.7,168.5,28.1,32.1-7.5,55.9-16.7,55.9-28.1v-28c0-11.4-23.8-20.6-55.9-28.1-66.5,15.4-168.5,23.3-168.5,28.1"/>
      <path id="border-9" data-name="border" d="M359.3,505.3a5.5,5.5,0,0,1-1.8-.2c-35.6-8.2-82.4-14.4-116.6-19-14.9-1.9-27.7-3.6-36.9-5.1-12.6-2-20.9-3.4-20.9-11.4v-28c0-8,8.3-9.4,20.9-11.4,9.2-1.5,22-3.2,36.8-5.1,34.2-4.6,81.1-10.8,116.7-19a6.9,6.9,0,0,1,3.5,0c43.4,10,61.9,20.6,61.9,35.5v28c0,14.9-18.5,25.5-61.9,35.5A5.2,5.2,0,0,1,359.3,505.3ZM198.5,464.4c8,1.7,26.4,4.2,44.4,6.5,33.9,4.5,80.2,10.7,116.4,18.9,46.9-11.1,48.2-20.1,48.2-20.2v-28c0-.1-1.3-9.1-48.2-20.2-36.2,8.2-82.5,14.4-116.5,18.9-17.9,2.3-36.3,4.8-44.3,6.5Z"/>
    </g>
    <g id="staircase-back-bottom-2" data-name="staircase-back-bottom">
      <path id="background-10" data-name="background" class="cls-1" d="M190.8,329.4v28c0,4.8,102,12.7,168.5,28.1,32.1-7.5,55.9-16.6,55.9-28.1v-28c0-11.4-23.8-20.6-55.9-28.1-66.5,15.4-168.5,23.4-168.5,28.1"/>
      <path id="border-10" data-name="border" d="M359.3,393.2l-1.8-.2c-35.6-8.3-82.4-14.5-116.7-19-14.8-2-27.6-3.7-36.8-5.2-12.6-2-20.9-3.4-20.9-11.4v-28c0-8,8.3-9.3,20.9-11.4,9.2-1.5,22-3.2,36.8-5.1,34.2-4.6,81.1-10.8,116.7-19a6.9,6.9,0,0,1,3.5,0c43.4,10,61.9,20.6,61.9,35.5v28c0,14.9-18.5,25.5-61.9,35.6Zm-160.8-41c8,1.7,26.4,4.2,44.4,6.6,33.9,4.5,80.2,10.6,116.4,18.8,46.9-11.1,48.2-20.1,48.2-20.2v-28c0-.1-1.3-9.1-48.2-20.2-36.2,8.2-82.5,14.4-116.5,18.9-17.9,2.3-36.3,4.8-44.3,6.5Z"/>
    </g>
    <g id="staircase-bottom">
      <path id="background-11" data-name="background" class="cls-1" d="M190.8,497.7v79.6a2.9,2.9,0,0,0,3.7,2.8c28.9-7.5,220.7-22,220.7-54.4V441.6c0,35-224.4,49.1-224.4,56.1"/>
      <path id="border-11" data-name="border" d="M193.7,587.9a10.7,10.7,0,0,1-10.6-10.6V497.7c0-8,8.3-9.4,20.9-11.4,9.2-1.5,22-3.2,36.8-5.2,32.2-4.2,76.2-10,110.9-17.6,55.2-12.1,55.8-21.8,55.8-21.9a7.7,7.7,0,1,1,15.4,0v84.1c0,26.2-60.7,39-180,54.8-21.3,2.8-39.7,5.2-46.5,7A12.6,12.6,0,0,1,193.7,587.9Zm4.8-85v68.5c9.1-1.7,23.7-3.6,42.3-6.1C273,561,317,555.2,351.7,547.6c55.2-12.1,55.8-21.8,55.8-21.9V461.4c-24.9,14-80,23.7-164.6,34.9C224.9,498.7,206.5,501.2,198.5,502.9Z"/>
    </g>
    <g id="staircase-middle">
      <path id="background-12" data-name="background" class="cls-1" d="M190.8,385.5v84.1c0-7,224.4-21,224.4-56.1V329.4c0,35-224.4,49.1-224.4,56.1"/>
      <path id="border-12" data-name="border" d="M190.8,477.3a7.7,7.7,0,0,1-7.7-7.7V385.5c0-8,8.3-9.4,20.9-11.4,9.2-1.5,22-3.2,36.8-5.1,32.2-4.3,76.2-10.1,110.9-17.7,55.2-12.1,55.8-21.8,55.8-21.9a7.7,7.7,0,1,1,15.4,0v84.1c0,26.2-60.7,39-180,54.8-20.5,2.7-41.6,5.5-47.1,7.2A8,8,0,0,1,190.8,477.3Zm7.7-7.6Zm0-.1h0Zm0,0Zm0,0Zm0-78.9v68.5l5.5-1c9.2-1.4,22-3.1,36.8-5.1C273,448.8,317,443,351.7,435.4c55.2-12.1,55.8-21.8,55.8-21.9V349.2c-24.9,14.1-80,23.8-164.6,35C224.9,386.5,206.5,389,198.5,390.7Z"/>
    </g>
    <g id="staircase-top">
      <path id="background-13" data-name="background" class="cls-1" d="M190.8,273.3v84.1c0-7,224.4-21,224.4-56.1V217.2c0,35.1-224.4,49.1-224.4,56.1"/>
      <path id="border-13" data-name="border" d="M190.8,365.1a7.7,7.7,0,0,1-7.7-7.7V273.3c0-8,8.3-9.3,20.9-11.4,9.2-1.5,22-3.2,36.8-5.1,32.2-4.3,76.2-10.1,110.9-17.7,55.2-12.1,55.8-21.8,55.8-21.9a7.7,7.7,0,0,1,15.4,0v84.1c0,26.2-60.7,39-180,54.8-20.5,2.7-41.6,5.5-47.1,7.2A8,8,0,0,1,190.8,365.1Zm7.7-7.6Zm0,0Zm0-.1h0Zm0,0Zm0-78.9V347l5.5-.9c9.2-1.5,22-3.2,36.8-5.2,32.2-4.2,76.2-10.1,110.9-17.7,55.2-12,55.8-21.8,55.8-21.9V237c-24.9,14.1-80,23.8-164.6,35C224.9,274.4,206.5,276.8,198.5,278.5Z"/>
    </g>
  </g>
  <g id="right-eye">
    <g id="eye">
      <path id="background-14" data-name="background" class="cls-1" d="M444.9,282.2a95.9,95.9,0,1,1,95.9-95.9A96,96,0,0,1,444.9,282.2Z"/>
      <path id="border-14" data-name="border" d="M444.9,98.1a88.2,88.2,0,1,1-88.2,88.2,88.2,88.2,0,0,1,88.2-88.2m0-15.4A103.6,103.6,0,1,0,548.5,186.3,103.5,103.5,0,0,0,444.9,82.7Z"/>
    </g>
    <g id="iris">
      <circle id="background-15" data-name="background" class="cls-1" cx="444.9" cy="186.3" r="46"/>
      <path id="border-15" data-name="border" d="M444.9,147.9a38.4,38.4,0,1,1-38.3,38.4,38.4,38.4,0,0,1,38.3-38.4m0-15.3a53.7,53.7,0,1,0,53.7,53.7,53.7,53.7,0,0,0-53.7-53.7Z"/>
    </g>
    <circle id="pupile" cx="444.9" cy="186.3" r="11.5"/>
  </g>
  <g id="left-eye">
    <g id="eye-2" data-name="eye">
      <path id="background-16" data-name="background" class="cls-1" d="M161.1,282.2A95.9,95.9,0,1,1,257,186.3,96,96,0,0,1,161.1,282.2Z"/>
      <path id="border-16" data-name="border" d="M161.1,98.1a88.2,88.2,0,1,1-88.2,88.2,88.3,88.3,0,0,1,88.2-88.2m0-15.4A103.6,103.6,0,1,0,264.6,186.3,103.6,103.6,0,0,0,161.1,82.7Z"/>
    </g>
    <g id="iris-2" data-name="iris">
      <circle id="background-17" data-name="background" class="cls-1" cx="161.1" cy="186.3" r="46"/>
      <path id="border-17" data-name="border" d="M161.1,147.9a38.4,38.4,0,1,1-38.4,38.4,38.4,38.4,0,0,1,38.4-38.4m0-15.3a53.7,53.7,0,1,0,53.7,53.7,53.6,53.6,0,0,0-53.7-53.7Z"/>
    </g>
    <circle id="pupile-2" data-name="pupile" cx="161.1" cy="186.3" r="11.5"/>
  </g>
</svg>
